<svg width="322" height="173" viewBox="0 0 322 173" fill="none" xmlns="http://www.w3.org/2000/svg">
<path d="M65.8831 169C49.5573 169 36.2644 155.707 36.2644 139.381C36.2644 123.056 49.5573 109.763 65.8831 109.763C82.2089 109.763 95.5018 123.056 95.5018 139.381C95.5018 155.707 82.2089 169 65.8831 169Z" fill="#CCE8E7"/>
<path d="M65.8831 169C49.5573 169 36.2644 155.707 36.2644 139.381C36.2644 123.056 49.5573 109.763 65.8831 109.763C82.2089 109.763 95.5018 123.056 95.5018 139.381C95.5018 155.707 82.2089 169 65.8831 169Z" stroke="#006A6A" stroke-width="8" stroke-miterlimit="10" stroke-linecap="round" stroke-linejoin="round"/>
<path d="M65.883 154.868C57.3652 154.868 50.3961 147.899 50.3961 139.381C50.3961 130.864 57.3652 123.894 65.883 123.894C74.4008 123.894 81.3699 130.864 81.3699 139.381C81.3699 147.899 74.4008 154.868 65.883 154.868Z" fill="#CCE8E7"/>
<path d="M65.883 154.868C57.3652 154.868 50.3961 147.899 50.3961 139.381C50.3961 130.864 57.3652 123.894 65.883 123.894C74.4008 123.894 81.3699 130.864 81.3699 139.381C81.3699 147.899 74.4008 154.868 65.883 154.868Z" stroke="#006A6A" stroke-width="8" stroke-miterlimit="10" stroke-linecap="round" stroke-linejoin="round"/>
<path d="M65.883 144.479C63.0438 144.479 60.7853 142.156 60.7853 139.381C60.7853 136.542 63.1083 134.284 65.883 134.284C68.7223 134.284 70.9808 136.607 70.9808 139.381C70.9808 142.156 68.7223 144.479 65.883 144.479Z" fill="#6FF7F6"/>
<path d="M65.883 144.479C63.0438 144.479 60.7853 142.156 60.7853 139.381C60.7853 136.542 63.1083 134.284 65.883 134.284C68.7223 134.284 70.9808 136.607 70.9808 139.381C70.9808 142.156 68.7223 144.479 65.883 144.479Z" stroke="#006A6A" stroke-width="8" stroke-miterlimit="10" stroke-linecap="round" stroke-linejoin="round"/>
<path d="M302.704 49.2346L296.638 26.1979C294.25 16.9703 286.378 10.2593 276.892 9.22684C249.79 6.32305 216.945 4.64529 178.615 4.64529C134.735 4.64529 67.3027 8.00078 47.0407 10.3238C43.3626 10.711 40.2007 13.0986 38.7165 16.5186L26.5206 45.0403C20.9066 55.1068 17.4865 66.2057 16.5186 77.6918L16.2605 141.833L29.8761 142.092C29.8115 141.188 29.747 140.285 29.747 139.381C29.747 119.442 45.8792 103.31 65.8186 103.31C85.7579 103.31 101.89 119.442 101.89 139.381C101.89 140.543 101.826 141.704 101.697 142.801L196.554 143.963C196.36 142.479 196.231 140.93 196.231 139.381C196.231 119.442 212.363 103.31 232.303 103.31C252.242 103.31 268.374 119.442 268.374 139.381C268.374 141.188 268.245 142.93 267.987 144.673L306.253 145.06V78.2081C306.446 68.4642 305.156 58.7204 302.704 49.2346Z" fill="#006A6A"/>
<g opacity="0.36">
<path d="M23.4877 141.833L23.7458 77.6918C24.7138 66.2057 28.1338 55.1068 33.7478 45.0403L45.9437 16.5186C47.4279 13.0986 50.5898 10.7755 54.2679 10.3238C73.9492 8.06531 138.026 4.83888 181.906 4.64529C180.809 4.64529 179.712 4.64529 178.615 4.64529C134.735 4.64529 67.3027 8.00078 47.0407 10.3238C43.3626 10.711 40.2007 13.0986 38.7165 16.5186L26.5206 45.0403C20.9066 55.1068 17.4865 66.2057 16.5186 77.6918L16.2605 141.833L29.8761 142.092C29.8761 142.027 29.8761 142.027 29.8761 141.962L23.4877 141.833Z" fill="#6FF7F6"/>
<path d="M275.343 144.673C275.602 142.93 275.731 141.188 275.731 139.381C275.731 119.442 259.598 103.31 239.659 103.31C238.433 103.31 237.271 103.374 236.045 103.503C254.307 105.31 268.503 120.668 268.503 139.381C268.503 141.188 268.374 142.93 268.116 144.673L306.382 145.06V144.995L275.343 144.673Z" fill="#8E63AD"/>
<path d="M108.988 142.737C109.117 141.64 109.182 140.478 109.182 139.317C109.182 119.377 93.0497 103.245 73.1103 103.245C71.8843 103.245 70.7228 103.31 69.4967 103.439C87.7583 105.246 101.955 120.603 101.955 139.317C101.955 140.478 101.89 141.64 101.761 142.737L196.618 143.898V143.834L108.988 142.737Z" fill="#8E63AD"/>
</g>
<path opacity="0.36" d="M109.117 136.929H195.328V128.347H107.44C108.343 131.122 108.859 133.961 109.117 136.929Z" fill="#8E63AD"/>
<g opacity="0.25">
<path d="M303.994 48.5893L297.928 25.5526C295.541 16.325 287.668 9.614 278.183 8.58154C251.081 5.67775 218.235 4 179.905 4C136.026 4 68.5932 7.35549 48.3312 9.67852C45.1693 10.0657 42.33 11.8725 40.7168 14.5827C40.7168 14.5827 40.7168 13.4857 40.7813 13.4857C61.0434 11.1627 128.476 8.90419 172.355 8.90419C210.75 8.90419 243.531 10.5819 270.633 13.4857C280.118 14.5182 287.926 21.2292 290.378 30.4568L296.444 53.4936C298.961 62.9793 300.187 72.7231 300.187 82.4669V144.35L307.801 144.415V77.5628C307.737 67.8189 306.446 58.0751 303.994 48.5893Z" fill="#8E63AD"/>
</g>
<path d="M302.704 49.2346L296.638 26.1979C294.25 16.9703 286.378 10.2593 276.892 9.22684C249.79 6.32305 216.945 4.64529 178.615 4.64529C134.735 4.64529 67.3027 8.00078 47.0407 10.3238C43.3626 10.711 40.2007 13.0986 38.7165 16.5186L26.5206 45.0403C20.9066 55.1068 17.4865 66.2057 16.5186 77.6918L16.2605 141.833L29.8761 142.092C29.8115 141.188 29.747 140.285 29.747 139.381C29.747 119.442 45.8792 103.31 65.8186 103.31C85.7579 103.31 101.89 119.442 101.89 139.381C101.89 140.543 101.826 141.704 101.697 142.801L196.554 143.963C196.36 142.479 196.231 140.93 196.231 139.381C196.231 119.442 212.363 103.31 232.303 103.31C252.242 103.31 268.374 119.442 268.374 139.381C268.374 141.188 268.245 142.93 267.987 144.673L306.253 145.06V78.2081C306.446 68.4642 305.156 58.7204 302.704 49.2346Z" stroke="#4A6363" stroke-width="8" stroke-miterlimit="10" stroke-linecap="round" stroke-linejoin="round"/>
<path d="M232.432 169C216.106 169 202.813 155.707 202.813 139.381C202.813 123.056 216.106 109.763 232.432 109.763C248.757 109.763 262.05 123.056 262.05 139.381C262.05 155.707 248.757 169 232.432 169Z" fill="#CCE8E7"/>
<path d="M232.432 169C216.106 169 202.813 155.707 202.813 139.381C202.813 123.056 216.106 109.763 232.432 109.763C248.757 109.763 262.05 123.056 262.05 139.381C262.05 155.707 248.757 169 232.432 169Z" stroke="#006A6A" stroke-width="8" stroke-miterlimit="10" stroke-linecap="round" stroke-linejoin="round"/>
<path d="M232.432 154.868C223.914 154.868 216.945 147.899 216.945 139.381C216.945 130.864 223.914 123.894 232.432 123.894C240.95 123.894 247.919 130.864 247.919 139.381C247.919 147.899 240.95 154.868 232.432 154.868Z" fill="#CCE8E7"/>
<path d="M232.432 154.868C223.914 154.868 216.945 147.899 216.945 139.381C216.945 130.864 223.914 123.894 232.432 123.894C240.95 123.894 247.919 130.864 247.919 139.381C247.919 147.899 240.95 154.868 232.432 154.868Z" stroke="#006A6A" stroke-width="8" stroke-miterlimit="10" stroke-linecap="round" stroke-linejoin="round"/>
<path d="M232.432 144.479C229.593 144.479 227.334 142.156 227.334 139.381C227.334 136.542 229.657 134.284 232.432 134.284C235.271 134.284 237.53 136.607 237.53 139.381C237.53 142.156 235.271 144.479 232.432 144.479Z" fill="#6FF7F6"/>
<path d="M232.432 144.479C229.593 144.479 227.334 142.156 227.334 139.381C227.334 136.542 229.657 134.284 232.432 134.284C235.271 134.284 237.53 136.607 237.53 139.381C237.53 142.156 235.271 144.479 232.432 144.479Z" stroke="#006A6A" stroke-width="8" stroke-miterlimit="10" stroke-linecap="round" stroke-linejoin="round"/>
<path d="M16.2605 147.576H9.22683C6.32304 147.576 4 145.253 4 142.35V121.507C4 118.603 6.32304 116.28 9.22683 116.28H16.2605V147.576Z" fill="white"/>
<path d="M16.2605 147.576H9.22683C6.32304 147.576 4 145.253 4 142.35V121.507C4 118.603 6.32304 116.28 9.22683 116.28H16.2605V147.576Z" stroke="#4A6363" stroke-width="8" stroke-miterlimit="10" stroke-linecap="round" stroke-linejoin="round"/>
<path d="M17.2929 107.891H14.7117C12.7759 107.891 11.2272 106.343 11.2272 104.407V88.4036C11.2272 86.4677 12.7759 84.9191 14.7117 84.9191H17.2929C19.2287 84.9191 20.7774 86.4677 20.7774 88.4036V104.407C20.7774 106.343 19.2287 107.891 17.2929 107.891Z" fill="white"/>
<path d="M17.2929 107.891H14.7117C12.7759 107.891 11.2272 106.343 11.2272 104.407V88.4036C11.2272 86.4677 12.7759 84.9191 14.7117 84.9191H17.2929C19.2287 84.9191 20.7774 86.4677 20.7774 88.4036V104.407C20.7774 106.343 19.2287 107.891 17.2929 107.891Z" stroke="#4A6363" stroke-width="8" stroke-miterlimit="10" stroke-linecap="round" stroke-linejoin="round"/>
<path d="M311.35 152.545H283.603C280.377 152.545 277.795 149.964 277.795 146.738V142.221C277.795 138.994 280.377 136.413 283.603 136.413H311.35C314.577 136.413 317.158 138.994 317.158 142.221V146.738C317.158 149.899 314.512 152.545 311.35 152.545Z" fill="white"/>
<path d="M283.99 146.286C283.99 144.673 285.345 143.318 286.959 143.318H317.093V142.221C317.093 138.994 314.512 136.413 311.286 136.413H283.539C280.312 136.413 277.731 138.994 277.731 142.221V146.738C277.731 149.964 280.312 152.545 283.539 152.545H283.99V146.286Z" fill="#D8D8D8"/>
<path d="M311.35 152.545H283.603C280.377 152.545 277.795 149.964 277.795 146.738V142.221C277.795 138.994 280.377 136.413 283.603 136.413H311.35C314.577 136.413 317.158 138.994 317.158 142.221V146.738C317.158 149.899 314.512 152.545 311.35 152.545Z" stroke="#4A6363" stroke-width="8" stroke-miterlimit="10" stroke-linecap="round" stroke-linejoin="round"/>
<path d="M264.373 64.2053H234.497C231.077 64.2053 228.302 61.4306 228.302 58.0106V27.8756C228.302 24.4556 231.077 21.6809 234.497 21.6809H252.629C259.792 21.6809 265.858 26.9077 266.955 34.0059L270.439 57.0426C271.084 60.8498 268.181 64.2053 264.373 64.2053Z" fill="#CCE8E7"/>
<path opacity="0.56" d="M240.95 35.2964C240.95 31.8764 243.724 29.1017 247.144 29.1017H265.277C262.76 24.6492 257.985 21.7454 252.629 21.7454H234.497C231.077 21.7454 228.302 24.5201 228.302 27.9401V58.0751C228.302 61.4951 231.077 64.2698 234.497 64.2698H240.95V35.2964Z" fill="#6FF7F6"/>
<path d="M264.373 64.2053H234.497C231.077 64.2053 228.302 61.4306 228.302 58.0106V27.8756C228.302 24.4556 231.077 21.6809 234.497 21.6809H252.629C259.792 21.6809 265.858 26.9077 266.955 34.0059L270.439 57.0426C271.084 60.8498 268.181 64.2053 264.373 64.2053Z" stroke="#4A6363" stroke-width="8" stroke-miterlimit="10" stroke-linecap="round" stroke-linejoin="round"/>
<path d="M208.427 63.56H142.479C139.059 63.56 136.284 60.7853 136.284 57.3653V27.2303C136.284 23.8103 139.059 21.0356 142.479 21.0356H208.427C211.847 21.0356 214.622 23.8103 214.622 27.2303V57.3653C214.557 60.7853 211.847 63.56 208.427 63.56Z" fill="#CCE8E7"/>
<path opacity="0.56" d="M148.222 33.8768C148.222 30.4568 150.996 27.6821 154.417 27.6821H214.557V27.2303C214.557 23.8103 211.783 21.0356 208.363 21.0356H142.479C139.059 21.0356 136.284 23.8103 136.284 27.2303V57.3653C136.284 60.7853 139.059 63.56 142.479 63.56H148.286V33.8768H148.222Z" fill="#6FF7F6"/>
<path d="M208.427 63.56H142.479C139.059 63.56 136.284 60.7853 136.284 57.3653V27.2303C136.284 23.8103 139.059 21.0356 142.479 21.0356H208.427C211.847 21.0356 214.622 23.8103 214.622 27.2303V57.3653C214.557 60.7853 211.847 63.56 208.427 63.56Z" stroke="#4A6363" stroke-width="8" stroke-miterlimit="10" stroke-linecap="round" stroke-linejoin="round"/>
<path d="M106.278 64.2053H44.1369C40.6523 64.2053 38.1357 60.3336 39.1036 56.3973L46.2663 26.2624C46.9116 23.6167 48.9765 21.7454 51.2995 21.7454H106.278C109.182 21.7454 111.505 24.5201 111.505 27.9401V58.0751C111.569 61.4306 109.182 64.2053 106.278 64.2053Z" fill="#CCE8E7"/>
<path opacity="0.56" d="M50.7189 62.7211L57.8815 32.5862C58.5268 29.9405 60.5917 28.0692 62.9148 28.0692H111.505V27.8756C111.505 24.4556 109.182 21.6809 106.278 21.6809H51.2996C48.9766 21.6809 46.9117 23.5522 46.2664 26.1979L39.1037 56.3328C38.2003 60.269 40.6524 64.1408 44.1369 64.1408H50.5253C50.5898 63.6891 50.6543 63.2374 50.7189 62.7211Z" fill="#6FF7F6"/>
<path d="M106.278 64.2053H44.1369C40.6523 64.2053 38.1357 60.3336 39.1036 56.3973L46.2663 26.2624C46.9116 23.6167 48.9765 21.7454 51.2995 21.7454H106.278C109.182 21.7454 111.505 24.5201 111.505 27.9401V58.0751C111.569 61.4306 109.182 64.2053 106.278 64.2053Z" stroke="#4A6363" stroke-width="8" stroke-miterlimit="10" stroke-linecap="round" stroke-linejoin="round"/>
<path opacity="0.48" d="M112.666 7.67813C120.023 7.67813 125.959 13.6148 125.959 20.971V143.059" stroke="#523160" stroke-width="2" stroke-miterlimit="10" stroke-linecap="round" stroke-linejoin="round"/>
<path d="M95.5017 79.6922H114.86" stroke="#6FF7F6" stroke-width="8" stroke-miterlimit="10" stroke-linecap="round" stroke-linejoin="round"/>
<path d="M195.973 78.2081H212.492" stroke="#6FF7F6" stroke-width="8" stroke-miterlimit="10" stroke-linecap="round" stroke-linejoin="round"/>
<path d="M308.124 123.056H305.607V61.4306H308.124C312.383 61.4306 315.867 64.9151 315.867 69.174V115.312C315.867 119.571 312.383 123.056 308.124 123.056Z" fill="#D8D8D8"/>
<path d="M308.124 123.056H305.607V61.4306H308.124C312.383 61.4306 315.867 64.9151 315.867 69.174V115.312C315.867 119.571 312.383 123.056 308.124 123.056Z" stroke="#4A6363" stroke-width="8" stroke-miterlimit="10" stroke-linecap="round" stroke-linejoin="round"/>
<path d="M277.795 28.1983H285.603" stroke="#4A6363" stroke-width="8" stroke-miterlimit="10" stroke-linecap="round" stroke-linejoin="round"/>
<path d="M281.022 39.2972H288.83" stroke="#4A6363" stroke-width="8" stroke-miterlimit="10" stroke-linecap="round" stroke-linejoin="round"/>
<path d="M284.055 50.3316H291.863" stroke="#4A6363" stroke-width="8" stroke-miterlimit="10" stroke-linecap="round" stroke-linejoin="round"/>
<path d="M285.345 61.4306H293.218" stroke="#4A6363" stroke-width="8" stroke-miterlimit="10" stroke-linecap="round" stroke-linejoin="round"/>
<path d="M191.004 147.06H107.569C104.084 147.06 101.309 144.285 101.309 140.801C101.309 137.316 104.084 134.542 107.569 134.542H191.004C194.489 134.542 197.264 137.316 197.264 140.801C197.264 144.221 194.489 147.06 191.004 147.06Z" fill="white"/>
<path d="M191.004 147.06H107.569C104.084 147.06 101.309 144.285 101.309 140.801C101.309 137.316 104.084 134.542 107.569 134.542H191.004C194.489 134.542 197.264 137.316 197.264 140.801C197.264 144.221 194.489 147.06 191.004 147.06Z" fill="white"/>
<path d="M197.264 134.542H101.309V140.801H197.264V134.542Z" fill="#D8D8D8"/>
<path d="M191.004 147.06H107.569C104.084 147.06 101.309 144.285 101.309 140.801C101.309 137.316 104.084 134.542 107.569 134.542H191.004C194.489 134.542 197.264 137.316 197.264 140.801C197.264 144.221 194.489 147.06 191.004 147.06Z" stroke="#4A6363" stroke-width="8" stroke-miterlimit="10" stroke-linecap="round" stroke-linejoin="round"/>
<path d="M67.1091 49.3637L84.1447 32.1991" stroke="#006A6A" stroke-width="4" stroke-miterlimit="10" stroke-linecap="round" stroke-linejoin="round"/>
<path d="M154.675 46.718L167.258 33.9413" stroke="#006A6A" stroke-width="4" stroke-miterlimit="10" stroke-linecap="round" stroke-linejoin="round"/>
<path d="M165.386 47.8795L182.422 30.7149" stroke="#006A6A" stroke-width="4" stroke-miterlimit="10" stroke-linecap="round" stroke-linejoin="round"/>
<path d="M236.497 47.944L246.886 37.4259" stroke="#006A6A" stroke-width="4" stroke-miterlimit="10" stroke-linecap="round" stroke-linejoin="round"/>
<path d="M245.338 48.912L259.34 34.7157" stroke="#006A6A" stroke-width="4" stroke-miterlimit="10" stroke-linecap="round" stroke-linejoin="round"/>
<path d="M56.3973 48.2022L69.045 35.49" stroke="#006A6A" stroke-width="4" stroke-miterlimit="10" stroke-linecap="round" stroke-linejoin="round"/>
</svg>
